<?xml version="1.0" encoding="iso-8859-1"?>
<!-- Generator: Adobe Illustrator 19.0.0, SVG Export Plug-In . SVG Version: 6.00 Build 0)  -->
<svg version="1.1" id="Layer_1" xmlns="http://www.w3.org/2000/svg" xmlns:xlink="http://www.w3.org/1999/xlink" x="0px" y="0px"
	 viewBox="0 0 446.639 446.639" style="enable-background:new 0 0 446.639 446.639;" xml:space="preserve">
<g>
	<rect x="32.295" y="125.025" style="fill:#F7F2DF;" width="382.05" height="309.005"/>
	<path style="opacity:0.2;fill:#FCFAFA;enable-background:new    ;" d="M254.823,327.877v44.573h-25.498
		C229.324,372.45,251.699,365.292,254.823,327.877z"/>
	<polygon style="fill:#C1A96C;" points="446.075,118.334 0.564,118.334 223.32,12.609 	"/>
	<rect x="32.295" y="179.303" style="fill:#DBCEA9;" width="382.05" height="11.346"/>
	<polygon style="fill:#DBCEA9;" points="415.001,118.334 31.638,118.334 223.32,27.36 	"/>
	<polygon style="fill:#C1A96C;" points="107.105,101.334 223.319,46.177 339.534,101.334 	"/>
	<rect x="103.32" y="197.655" style="fill:#DBCEA9;" width="39" height="204.642"/>
	<path style="fill:#C4B383;" d="M111.82,394.963L111.82,394.963c-1.473,0-2.667-1.194-2.667-2.667V207.655
		c0-1.473,1.194-2.667,2.667-2.667l0,0c1.473,0,2.667,1.194,2.667,2.667v184.642C114.486,393.77,113.292,394.963,111.82,394.963z"/>
	<path style="fill:#C4B383;" d="M122.82,394.963L122.82,394.963c-1.473,0-2.667-1.194-2.667-2.667V207.655
		c0-1.473,1.194-2.667,2.667-2.667l0,0c1.473,0,2.667,1.194,2.667,2.667v184.642C125.486,393.77,124.292,394.963,122.82,394.963z"/>
	<path style="fill:#C4B383;" d="M133.82,394.963L133.82,394.963c-1.473,0-2.667-1.194-2.667-2.667V207.655
		c0-1.473,1.194-2.667,2.667-2.667l0,0c1.473,0,2.667,1.194,2.667,2.667v184.642C136.486,393.77,135.292,394.963,133.82,394.963z"/>
	<rect x="45.178" y="197.655" style="fill:#DBCEA9;" width="39" height="204.642"/>
	<polygon style="fill:#CEBB84;" points="94.178,402.297 93.32,402.297 24.961,402.297 24.961,418.297 93.32,418.297 94.178,418.297 
		152.32,418.297 152.32,402.297 	"/>
	<path style="fill:#C4B383;" d="M53.678,394.963L53.678,394.963c-1.473,0-2.667-1.194-2.667-2.667V207.655
		c0-1.473,1.194-2.667,2.667-2.667l0,0c1.473,0,2.667,1.194,2.667,2.667v184.642C56.344,393.77,55.15,394.963,53.678,394.963z"/>
	<path style="fill:#C4B383;" d="M64.678,394.963L64.678,394.963c-1.473,0-2.667-1.194-2.667-2.667V207.655
		c0-1.473,1.194-2.667,2.667-2.667l0,0c1.473,0,2.667,1.194,2.667,2.667v184.642C67.344,393.77,66.15,394.963,64.678,394.963z"/>
	<path style="fill:#C4B383;" d="M75.678,394.963L75.678,394.963c-1.473,0-2.667-1.194-2.667-2.667V207.655
		c0-1.473,1.194-2.667,2.667-2.667l0,0c1.473,0,2.667,1.194,2.667,2.667v184.642C78.344,393.77,77.15,394.963,75.678,394.963z"/>
	<rect x="304.32" y="197.655" style="fill:#DBCEA9;" width="39" height="204.642"/>
	<path style="fill:#C4B383;" d="M334.82,394.963L334.82,394.963c1.473,0,2.667-1.194,2.667-2.667V207.655
		c0-1.473-1.194-2.667-2.667-2.667l0,0c-1.473,0-2.667,1.194-2.667,2.667v184.642C332.153,393.77,333.347,394.963,334.82,394.963z"
		/>
	<path style="fill:#C4B383;" d="M323.82,394.963L323.82,394.963c1.473,0,2.667-1.194,2.667-2.667V207.655
		c0-1.473-1.194-2.667-2.667-2.667l0,0c-1.473,0-2.667,1.194-2.667,2.667v184.642C321.153,393.77,322.347,394.963,323.82,394.963z"
		/>
	<path style="fill:#C4B383;" d="M312.82,394.963L312.82,394.963c1.473,0,2.667-1.194,2.667-2.667V207.655
		c0-1.473-1.194-2.667-2.667-2.667l0,0c-1.473,0-2.667,1.194-2.667,2.667v184.642C310.153,393.77,311.347,394.963,312.82,394.963z"
		/>
	<rect x="362.461" y="197.655" style="fill:#DBCEA9;" width="39" height="204.642"/>
	<polygon style="fill:#CEBB84;" points="352.461,402.297 353.32,402.297 421.678,402.297 421.678,418.297 353.32,418.297 
		352.461,418.297 294.32,418.297 294.32,402.297 	"/>
	<path style="fill:#C4B383;" d="M392.961,394.963L392.961,394.963c1.473,0,2.667-1.194,2.667-2.667V207.655
		c0-1.473-1.194-2.667-2.667-2.667l0,0c-1.473,0-2.667,1.194-2.667,2.667v184.642C390.295,393.77,391.489,394.963,392.961,394.963z"
		/>
	<path style="fill:#C4B383;" d="M381.961,394.963L381.961,394.963c1.473,0,2.667-1.194,2.667-2.667V207.655
		c0-1.473-1.194-2.667-2.667-2.667l0,0c-1.473,0-2.667,1.194-2.667,2.667v184.642C379.295,393.77,380.489,394.963,381.961,394.963z"
		/>
	<path style="fill:#C4B383;" d="M370.961,394.963L370.961,394.963c1.473,0,2.667-1.194,2.667-2.667V207.655
		c0-1.473-1.194-2.667-2.667-2.667l0,0c-1.473,0-2.667,1.194-2.667,2.667v184.642C368.295,393.77,369.489,394.963,370.961,394.963z"
		/>
	<g>
		<g>
			<circle style="fill:#C1A96C;" cx="66.653" cy="119.229" r="7.333"/>
			<circle style="fill:#C1A96C;" cx="89.034" cy="119.229" r="7.333"/>
			<circle style="fill:#C1A96C;" cx="111.415" cy="119.229" r="7.333"/>
			<circle style="fill:#C1A96C;" cx="133.796" cy="119.229" r="7.333"/>
			<circle style="fill:#C1A96C;" cx="156.177" cy="119.229" r="7.333"/>
			<circle style="fill:#C1A96C;" cx="178.558" cy="119.229" r="7.333"/>
			<circle style="fill:#C1A96C;" cx="200.939" cy="119.229" r="7.333"/>
			<circle style="fill:#C1A96C;" cx="223.32" cy="119.229" r="7.333"/>
			<circle style="fill:#C1A96C;" cx="245.701" cy="119.229" r="7.333"/>
			<circle style="fill:#C1A96C;" cx="268.081" cy="119.229" r="7.333"/>
			<circle style="fill:#C1A96C;" cx="290.462" cy="119.229" r="7.333"/>
			<circle style="fill:#C1A96C;" cx="312.843" cy="119.229" r="7.333"/>
			<circle style="fill:#C1A96C;" cx="335.224" cy="119.229" r="7.333"/>
			<circle style="fill:#C1A96C;" cx="357.605" cy="119.229" r="7.333"/>
			<circle style="fill:#C1A96C;" cx="379.986" cy="119.229" r="7.333"/>
		</g>
	</g>
	<g>
		<g>
			<circle style="fill:#C1A96C;" cx="223.32" cy="27.359" r="7.333"/>
			<circle style="fill:#C1A96C;" cx="243.568" cy="36.893" r="7.333"/>
			<circle style="fill:#C1A96C;" cx="263.817" cy="46.427" r="7.333"/>
			<circle style="fill:#C1A96C;" cx="284.066" cy="55.961" r="7.333"/>
			<circle style="fill:#C1A96C;" cx="304.315" cy="65.495" r="7.333"/>
			<circle style="fill:#C1A96C;" cx="324.563" cy="75.029" r="7.333"/>
			<circle style="fill:#C1A96C;" cx="344.812" cy="84.563" r="7.333"/>
			<circle style="fill:#C1A96C;" cx="365.061" cy="94.097" r="7.333"/>
		</g>
	</g>
	<g>
		<g>
			<circle style="fill:#C1A96C;" cx="202.794" cy="36.893" r="7.333"/>
			<circle style="fill:#C1A96C;" cx="182.546" cy="46.427" r="7.333"/>
			<circle style="fill:#C1A96C;" cx="162.297" cy="55.961" r="7.333"/>
			<circle style="fill:#C1A96C;" cx="142.048" cy="65.495" r="7.333"/>
			<circle style="fill:#C1A96C;" cx="121.799" cy="75.029" r="7.333"/>
			<circle style="fill:#C1A96C;" cx="101.551" cy="84.563" r="7.333"/>
			<circle style="fill:#C1A96C;" cx="81.302" cy="94.097" r="7.333"/>
		</g>
	</g>
	<rect x="32.295" y="137.025" style="fill:#DBCEA9;" width="382.05" height="11.346"/>
	<polygon style="fill:#CEBB84;" points="24.961,148.371 24.961,181.655 24.961,182.358 24.961,197.655 93.32,197.655 
		94.178,197.655 152.32,197.655 152.32,182.358 294.32,182.358 294.32,197.655 352.461,197.655 353.32,197.655 421.678,197.655 
		421.678,182.358 421.678,181.655 421.678,148.371 	"/>
	<rect x="24.961" y="118.334" style="fill:#C1A96C;" width="396.716" height="18.691"/>
	<rect x="168.653" y="283.655" style="fill:#DBCEA9;" width="109.333" height="134.642"/>
	<rect x="173.653" y="288.655" style="fill:#CEBB84;" width="99.333" height="129.642"/>
	<polygon style="fill:#C1A96C;" points="267.986,418.297 267.986,293.655 178.653,293.655 178.653,418.297 0,418.297 0,434.03 
		446.639,434.03 446.639,418.297 	"/>
	<rect x="183.653" y="298.655" style="fill:#2D4151;" width="79.333" height="25"/>
	<rect x="183.653" y="331.193" style="fill:#2D4151;" width="79.333" height="81.795"/>
	<path style="fill:#C1A96C;" d="M175.295,272.655v-26.642c0-26.481,21.543-48.025,48.024-48.025s48.025,21.544,48.025,48.025v26.642
		H175.295z"/>
	<path style="fill:#2D4151;" d="M223.32,202.988L223.32,202.988c-23.762,0-43.025,19.263-43.025,43.025v21.642h86.05v-21.642
		C266.344,222.251,247.082,202.988,223.32,202.988z"/>
	<path style="fill:#C1A96C;" d="M195.295,276.321v-30.308c0-15.453,12.572-28.025,28.024-28.025
		c15.453,0,28.025,12.572,28.025,28.025v30.308H195.295z"/>
	<rect x="220.82" y="200.321" style="fill:#C1A96C;" width="5" height="67.333"/>
	<path style="fill:#DBCEA9;" d="M223.319,265.953c-11.317,0-20.524-9.208-20.524-20.525s9.207-20.524,20.524-20.524
		s20.525,9.207,20.525,20.524C243.844,256.745,234.637,265.953,223.319,265.953z"/>
	<path style="fill:#2D4151;" d="M238.848,245.432c0,8.57-6.95,15.52-15.53,15.52c-2.66,0-5.16-0.67-7.35-1.86
		c-4.87-2.61-8.17-7.75-8.17-13.66c0-8.58,6.95-15.53,15.52-15.53c3.61,0,6.93,1.23,9.57,3.31
		C236.518,236.042,238.848,240.462,238.848,245.432z"/>
	<rect x="161.14" y="267.655" style="fill:#CEBB84;" width="124.358" height="16"/>
	<rect x="219.55" y="298.013" style="fill:#C1A96C;" width="7.538" height="116.975"/>
	<path style="opacity:0.2;fill:#FCFAFA;enable-background:new    ;" d="M259.751,356.509v53.516h-30.614
		C229.136,410.025,256,401.431,259.751,356.509z"/>
	<path style="opacity:0.2;fill:#FCFAFA;enable-background:new    ;" d="M236.96,245.301c0,7.779-6.308,14.087-14.096,14.087
		c-2.414,0-4.684-0.608-6.672-1.688c5.237-5.029,10.974-12.517,15.358-23.491C234.845,236.778,236.96,240.789,236.96,245.301z"/>
	<path style="opacity:0.2;fill:#FCFAFA;enable-background:new    ;" d="M216.751,356.509v53.516h-30.614
		C186.136,410.025,213,401.431,216.751,356.509z"/>
	<g>
		<path style="fill:#A88F56;" d="M157.263,174.491c1.255-0.128,2.06-0.412,2.416-0.852c0.355-0.439,0.533-1.459,0.533-3.058V158.26
			c0-1.096-0.173-1.809-0.519-2.14s-1.131-0.525-2.356-0.585v-0.563h5.984l6.971,15.119l6.801-15.119h6.033v0.563
			c-1.126,0.079-1.853,0.284-2.179,0.615s-0.489,1.034-0.489,2.11v13.491c0,1.106,0.163,1.814,0.489,2.125s1.052,0.516,2.179,0.615
			v0.563h-8.492v-0.563c1.225-0.099,1.988-0.319,2.29-0.659s0.452-1.153,0.452-2.436v-13.625l-7.773,17.283h-0.415l-7.64-16.572
			v12.099c0,1.659,0.242,2.74,0.726,3.243c0.316,0.326,1.023,0.548,2.12,0.667v0.563h-7.129v-0.563H157.263z"/>
		<path style="fill:#A88F56;" d="M192.937,154.972v0.563c-1.166,0.079-1.922,0.274-2.268,0.585
			c-0.346,0.312-0.519,1.025-0.519,2.142v9.708c0,1.591,0.217,2.831,0.652,3.72c0.81,1.621,2.347,2.431,4.609,2.431
			c2.48,0,4.145-0.83,4.995-2.49c0.474-0.928,0.711-2.361,0.711-4.298v-7.899c0-1.65-0.198-2.685-0.593-3.105
			c-0.396-0.42-1.146-0.684-2.253-0.793v-0.563h7.025v0.563c-1.176,0.129-1.944,0.413-2.305,0.853
			c-0.361,0.439-0.541,1.455-0.541,3.045v7.899c0,2.095-0.321,3.73-0.963,4.906c-1.186,2.164-3.438,3.246-6.758,3.246
			c-3.281,0-5.514-1.067-6.699-3.201c-0.643-1.146-0.963-2.658-0.963-4.535v-9.485c0-1.106-0.17-1.815-0.511-2.126
			c-0.341-0.312-1.084-0.512-2.23-0.601v-0.563h8.611V154.972z"/>
		<path style="fill:#A88F56;" d="M207.787,168.948c0.513,1.363,1.115,2.45,1.805,3.26c1.204,1.413,2.698,2.12,4.484,2.12
			c0.967,0,1.803-0.306,2.508-0.919c0.706-0.613,1.058-1.467,1.058-2.564c0-0.988-0.355-1.848-1.064-2.579
			c-0.464-0.464-1.44-1.161-2.929-2.089l-2.589-1.616c-0.779-0.494-1.401-0.993-1.865-1.497c-0.859-0.958-1.29-2.016-1.29-3.172
			c0-1.531,0.509-2.806,1.527-3.824c1.018-1.018,2.366-1.526,4.046-1.526c0.691,0,1.524,0.17,2.498,0.511
			c0.973,0.341,1.529,0.511,1.667,0.511c0.375,0,0.635-0.089,0.778-0.267s0.254-0.43,0.333-0.756h0.623l0.667,6.461h-0.726
			c-0.494-1.946-1.287-3.305-2.379-4.076c-1.092-0.771-2.171-1.156-3.238-1.156c-0.83,0-1.554,0.245-2.171,0.733
			c-0.618,0.489-0.926,1.169-0.926,2.038c0,0.781,0.236,1.448,0.71,2.001c0.473,0.563,1.208,1.151,2.206,1.764l2.666,1.645
			c1.668,1.027,2.845,1.971,3.529,2.831c0.675,0.87,1.012,1.897,1.012,3.083c0,1.591-0.601,2.919-1.801,3.986
			c-1.201,1.067-2.734,1.601-4.602,1.601c-0.938,0-1.919-0.178-2.942-0.534c-1.022-0.356-1.608-0.534-1.756-0.534
			c-0.355,0-0.595,0.109-0.719,0.326s-0.205,0.449-0.245,0.696h-0.667l-0.904-6.461h0.696V168.948z"/>
		<path style="fill:#A88F56;" d="M223.052,174.491c1.117-0.118,1.84-0.317,2.171-0.597c0.331-0.28,0.497-0.99,0.497-2.13v-13.502
			c0-1.077-0.163-1.781-0.489-2.112s-1.052-0.536-2.179-0.615v-0.563h16.125l0.104,4.342h-0.771
			c-0.257-1.337-0.642-2.203-1.156-2.596c-0.514-0.393-1.66-0.59-3.438-0.59h-4.132c-0.446,0-0.721,0.072-0.825,0.215
			c-0.104,0.143-0.156,0.413-0.156,0.808v6.773h4.684c1.294,0,2.119-0.191,2.475-0.575c0.356-0.383,0.643-1.16,0.86-2.33h0.711v7.01
			h-0.711c-0.228-1.176-0.519-1.954-0.875-2.334c-0.355-0.38-1.176-0.57-2.46-0.57h-4.684v7.514c0,0.603,0.19,0.958,0.571,1.067
			s1.521,0.163,3.421,0.163c2.058,0,3.577-0.225,4.557-0.674s1.86-1.539,2.64-3.268h0.845l-1.378,5.128h-16.407V174.491z"/>
		<path style="fill:#A88F56;" d="M250.279,154.972v0.563c-1.166,0.079-1.922,0.274-2.268,0.585
			c-0.346,0.312-0.519,1.025-0.519,2.142v9.708c0,1.591,0.217,2.831,0.652,3.72c0.81,1.621,2.347,2.431,4.609,2.431
			c2.48,0,4.145-0.83,4.995-2.49c0.474-0.928,0.711-2.361,0.711-4.298v-7.899c0-1.65-0.198-2.685-0.593-3.105
			c-0.396-0.42-1.146-0.684-2.253-0.793v-0.563h7.025v0.563c-1.176,0.129-1.944,0.413-2.305,0.853
			c-0.361,0.439-0.541,1.455-0.541,3.045v7.899c0,2.095-0.321,3.73-0.963,4.906c-1.186,2.164-3.438,3.246-6.758,3.246
			c-3.281,0-5.514-1.067-6.699-3.201c-0.643-1.146-0.963-2.658-0.963-4.535v-9.485c0-1.106-0.17-1.815-0.511-2.126
			c-0.341-0.312-1.084-0.512-2.23-0.601v-0.563h8.611V154.972z"/>
		<path style="fill:#A88F56;" d="M263.513,174.491c1.255-0.128,2.06-0.412,2.416-0.852c0.355-0.439,0.533-1.459,0.533-3.058V158.26
			c0-1.096-0.173-1.809-0.519-2.14s-1.131-0.525-2.356-0.585v-0.563h5.984l6.971,15.119l6.801-15.119h6.033v0.563
			c-1.126,0.079-1.853,0.284-2.179,0.615s-0.489,1.034-0.489,2.11v13.491c0,1.106,0.163,1.814,0.489,2.125s1.052,0.516,2.179,0.615
			v0.563h-8.492v-0.563c1.225-0.099,1.988-0.319,2.29-0.659s0.452-1.153,0.452-2.436v-13.625l-7.773,17.283h-0.415l-7.64-16.572
			v12.099c0,1.659,0.242,2.74,0.726,3.243c0.316,0.326,1.023,0.548,2.12,0.667v0.563h-7.129v-0.563H263.513z"/>
	</g>
	<g>
		<g>
			<rect x="303.237" y="155.679" style="fill:#C1A96C;" width="5.667" height="34.667"/>
			<rect x="355.736" y="155.679" style="fill:#C1A96C;" width="5.667" height="34.667"/>
			<rect x="408.235" y="155.679" style="fill:#C1A96C;" width="5.667" height="34.667"/>
			<rect x="381.985" y="155.679" style="fill:#C1A96C;" width="5.667" height="34.667"/>
			<rect x="395.11" y="155.679" style="fill:#C1A96C;" width="5.667" height="34.667"/>
			<rect x="368.861" y="155.679" style="fill:#C1A96C;" width="5.667" height="34.667"/>
			<rect x="329.486" y="155.679" style="fill:#C1A96C;" width="5.667" height="34.667"/>
			<rect x="342.611" y="155.679" style="fill:#C1A96C;" width="5.667" height="34.667"/>
			<rect x="316.361" y="155.679" style="fill:#C1A96C;" width="5.667" height="34.667"/>
		</g>
		<g>
			<rect x="32.737" y="155.679" style="fill:#C1A96C;" width="5.667" height="34.667"/>
			<rect x="85.237" y="155.679" style="fill:#C1A96C;" width="5.667" height="34.667"/>
			<rect x="137.736" y="155.679" style="fill:#C1A96C;" width="5.667" height="34.667"/>
			<rect x="111.486" y="155.679" style="fill:#C1A96C;" width="5.667" height="34.667"/>
			<rect x="124.611" y="155.679" style="fill:#C1A96C;" width="5.667" height="34.667"/>
			<rect x="98.361" y="155.679" style="fill:#C1A96C;" width="5.667" height="34.667"/>
			<rect x="58.987" y="155.679" style="fill:#C1A96C;" width="5.667" height="34.667"/>
			<rect x="72.112" y="155.679" style="fill:#C1A96C;" width="5.667" height="34.667"/>
			<rect x="45.862" y="155.679" style="fill:#C1A96C;" width="5.667" height="34.667"/>
		</g>
	</g>
</g>
<g>
</g>
<g>
</g>
<g>
</g>
<g>
</g>
<g>
</g>
<g>
</g>
<g>
</g>
<g>
</g>
<g>
</g>
<g>
</g>
<g>
</g>
<g>
</g>
<g>
</g>
<g>
</g>
<g>
</g>
</svg>
